# xmcd
#
# Track frame offsets:
#	183
#	16988
#	32008
#	51458
#	66570
#	83823
#	103018
#	114325
#	133750
#	155303
#
# Disc length: 2291 seconds
#
# Revision: 1
# Processed by: cddbd v1.5.2PL0 Copyright (c) Steve Scherf et al.
# Submitted via: EZCDAudioConverter 3.1.5.1
#
DISCID=8308f10a
DTITLE=Χάρις Αλεξίου - Δι' ευχών
DYEAR=2011
DGENRE=
TTITLE0=Δι' ευχών
TTITLE1=Μάγισσα
TTITLE2=Συναυλία
TTITLE3=Φθινόπωρο
TTITLE4=Η δικιά μας ψυχή (Αμέρικα)
TTITLE5=Να ζήσω ή να πεθάνω (Flamenco)
TTITLE6=Τα πέδιλα
TTITLE7=Έλα νιότη μου πέρνα
TTITLE8=Τα Καρέλια
TTITLE9=Η πατρίδα
EXTD=
EXTT0=
EXTT1=
EXTT2=
EXTT3=
EXTT4=
EXTT5=
EXTT6=
EXTT7=
EXTT8=
EXTT9=
PLAYORDER=
